<svg xmlns="http://www.w3.org/2000/svg" width="256" height="256">
<path d="
    M0,0 L7,0 L7,1 L8,1 L8,2 L9,2 L9,3 L10,3 L10,4 L11,4 L11,6 L12,6 L12,8 L13,8
    L13,9 L14,9 L14,11 L15,11 L15,12 L16,12 L16,14 L17,14 L17,15 L18,15 L18,17
    L19,17 L19,19 L20,19 L20,20 L21,20 L21,22 L22,22 L22,23 L23,23 L23,25 L24,25
    L24,27 L25,27 L25,28 L26,28 L26,30 L27,30 L27,31 L28,31 L28,33 L29,33 L29,34
    L30,34 L30,36 L31,36 L31,38 L32,38 L32,39 L33,39 L33,41 L34,41 L34,42 L35,42
    L35,44 L36,44 L36,45 L37,45 L37,47 L38,47 L38,49 L39,49 L39,50 L40,50 L40,52
    L41,52 L41,53 L42,53 L42,55 L43,55 L43,57 L44,57 L44,58 L45,58 L45,60 L46,60
    L46,61 L47,61 L47,63 L48,63 L48,64 L50,64 L50,63 L52,63 L52,62 L53,62 L53,61
    L54,61 L54,60 L55,60 L55,59 L57,59 L57,58 L58,58 L58,57 L59,57 L59,56 L60,56
    L60,55 L62,55 L62,54 L63,54 L63,53 L65,53 L65,52 L71,52 L71,53 L72,53 L72,54
    L73,54 L73,55 L74,55 L74,56 L75,56 L75,57 L76,57 L76,58 L77,58 L77,59 L78,59
    L78,60 L79,60 L79,61 L80,61 L80,62 L81,62 L81,63 L82,63 L82,65 L83,65 L83,66
    L84,66 L84,67 L85,67 L85,68 L86,68 L86,69 L87,69 L87,70 L88,70 L88,71 L89,71
    L89,72 L90,72 L90,73 L91,73 L91,74 L92,74 L92,76 L93,76 L93,77 L94,77 L94,78
    L95,78 L95,79 L96,79 L96,80 L97,80 L97,81 L134,81 L134,82 L136,82 L136,84 L137,84
    L137,91 L136,91 L136,93 L134,93 L134,94 L131,94 L131,95 L111,95 L111,96 L112,96
    L112,98 L113,98 L113,99 L114,99 L114,100 L115,100 L115,101 L116,101 L116,102
    L117,102 L117,103 L118,103 L118,104 L119,104 L119,105 L120,105 L120,106 L121,106
    L121,108 L122,108 L122,114 L121,114 L121,116 L120,116 L120,117 L118,117 L118,118
    L112,118 L112,117 L111,117 L111,116 L110,116 L110,115 L109,115 L109,114 L108,114
    L108,113 L107,113 L107,112 L106,112 L106,111 L105,111 L105,110 L104,110 L104,109
    L103,109 L103,108 L102,108 L102,107 L101,107 L101,106 L100,106 L100,104 L99,104
    L99,103 L98,103 L98,102 L97,102 L97,101 L96,101 L96,100 L95,100 L95,99 L94,99
    L94,98 L93,98 L93,97 L92,97 L92,96 L91,96 L91,95 L90,95 L90,93 L89,93 L89,92
    L88,92 L88,91 L87,91 L87,90 L86,90 L86,89 L85,89 L85,88 L84,88 L84,87 L83,87
    L83,86 L82,86 L82,85 L81,85 L81,84 L80,84 L80,82 L79,82 L79,81 L78,81 L78,80 L77,80 L77,79 L76,79 L76,78 L75,78 L75,77 L74,77 L74,76 L73,76 L73,75 L72,75 L72,74 L71,74 L71,73 L70,73 L70,71 L69,71 L69,70 L68,70 L68,69 L66,69 L66,70 L65,70 L65,71 L63,71 L63,72 L62,72 L62,73 L61,73 L61,74 L60,74 L60,75 L58,75 L58,76 L57,76 L57,79 L58,79 L58,80 L59,80 L59,82 L60,82 L60,83 L61,83 L61,85 L62,85 L62,87 L63,87 L63,88 L64,88 L64,90 L65,90 L65,91 L66,91 L66,93 L67,93 L67,94 L68,94 L68,96 L69,96 L69,98 L70,98 L70,99 L71,99 L71,101 L72,101 L72,102 L73,102 L73,104 L74,104 L74,106 L75,106 L75,107 L76,107 L76,110 L77,110 L77,112 L76,112 L76,115 L75,115 L75,116 L74,116 L74,117 L73,117 L73,118 L67,118 L67,117 L65,117 L65,116 L64,116 L64,115 L63,115 L63,113 L62,113 L62,112 L61,112 L61,110 L60,110 L60,108 L59,108 L59,107 L58,107 L58,105 L57,105 L57,104 L56,104 L56,102 L55,102 L55,101 L54,101 L54,99 L53,99 L53,97 L52,97 L52,96 L51,96 L51,94 L50,94 L50,93 L49,93 L49,91 L48,91 L48,89 L47,89 L47,88 L46,88 L46,86 L45,86 L45,85 L44,85 L44,83 L43,83 L43,82 L42,82 L42,80 L41,80 L41,78 L40,78 L40,77 L39,77 L39,75 L38,75 L38,74 L37,74 L37,72 L36,72 L36,71 L35,71 L35,69 L34,69 L34,67 L33,67 L33,66 L32,66 L32,64 L31,64 L31,63 L30,63 L30,61 L29,61 L29,59 L28,59 L28,58 L27,58 L27,56 L26,56 L26,55 L25,55 L25,53 L24,53 L24,52 L23,52 L23,50 L22,50 L22,48 L21,48 L21,47 L20,47 L20,45 L19,45 L19,44 L18,44 L18,42 L17,42 L17,41 L16,41 L16,39 L15,39 L15,37 L14,37 L14,36 L13,36 L13,34 L12,34 L12,33 L11,33 L11,31 L10,31 L10,29 L9,29 L9,28 L8,28 L8,26 L7,26 L7,25 L6,25 L6,23 L5,23 L5,22 L4,22 L4,20 L3,20 L3,22 L2,22 L2,23 L1,23 L1,25 L0,25 L0,26 L-1,26 L-1,28 L-2,28 L-2,30 L-3,30 L-3,31 L-4,31 L-4,33 L-5,33 L-5,34 L-6,34 L-6,36 L-7,36 L-7,37 L-8,37 L-8,39 L-9,39 L-9,41 L-10,41 L-10,42 L-11,42 L-11,44 L-12,44 L-12,45 L-13,45 L-13,47 L-14,47 L-14,49 L-15,49 L-15,50 L-16,50 L-16,52 L-17,52 L-17,53 L-18,53 L-18,55 L-19,55 L-19,56 L-20,56 L-20,58 L-21,58 L-21,60 L-22,60 L-22,61 L-23,61 L-23,63 L-24,63 L-24,64 L-25,64 L-25,66 L-26,66 L-26,67 L-27,67 L-27,69 L-28,69 L-28,71 L-29,71 L-29,72 L-30,72 L-30,74 L-31,74 L-31,75 L-32,75 L-32,77 L-33,77 L-33,79 L-34,79 L-34,80 L-35,80 L-35,82 L-36,82 L-36,83 L-37,83 L-37,85 L-38,85 L-38,86 L-39,86 L-39,88 L-40,88 L-40,90 L-41,90 L-41,91 L-42,91 L-42,93 L-43,93 L-43,94 L-44,94 L-44,96 L-45,96 L-45,98 L-46,98 L-46,99 L-47,99 L-47,101 L-48,101 L-48,102 L-49,102 L-49,104 L-50,104 L-50,105 L-51,105 L-51,107 L-52,107 L-52,109 L-53,109 L-53,110 L-54,110 L-54,112 L-55,112 L-55,113 L-56,113 L-56,115 L-57,115 L-57,116 L-58,116 L-58,118 L-59,118 L-59,120 L-60,120 L-60,121 L-61,121 L-61,123 L-62,123 L-62,124 L-63,124 L-63,126 L-64,126 L-64,128 L-65,128 L-65,129 L-66,129 L-66,131 L-67,131 L-67,132 L-68,132 L-68,134 L-69,134 L-69,135 L-70,135 L-70,137 L-71,137 L-71,139 L-72,139 L-72,140 L-73,140 L-73,141 L-75,141 L-75,142 L-81,142 L-81,141 L-82,141 L-82,140 L-84,140 L-84,137 L-85,137 L-85,133 L-84,133 L-84,131 L-83,131 L-83,129 L-82,129 L-82,128 L-81,128 L-81,126 L-80,126 L-80,125 L-79,125 L-79,123 L-78,123 L-78,121 L-77,121 L-77,120 L-76,120 L-76,118 L-75,118 L-75,117 L-74,117 L-74,115 L-73,115 L-73,114 L-72,114 L-72,112 L-71,112 L-71,110 L-70,110 L-70,109 L-69,109 L-69,107 L-68,107 L-68,106 L-67,106 L-67,104 L-66,104 L-66,103 L-65,103 L-65,101 L-64,101 L-64,99 L-63,99 L-63,98 L-62,98 L-62,96 L-61,96 L-61,95 L-60,95 L-60,93 L-59,93 L-59,91 L-58,91 L-58,90 L-57,90 L-57,88 L-56,88 L-56,87 L-55,87 L-55,85 L-54,85 L-54,84 L-53,84 L-53,82 L-52,82 L-52,80 L-51,80 L-51,79 L-50,79 L-50,77 L-49,77 L-49,76 L-48,76 L-48,74 L-47,74 L-47,73 L-46,73 L-46,71 L-45,71 L-45,69 L-44,69 L-44,68 L-45,68 L-45,66 L-46,66 L-46,65 L-47,65 L-47,64 L-48,64 L-48,62 L-49,62 L-49,61 L-50,61 L-50,59 L-51,59 L-51,58 L-52,58 L-52,56 L-53,56 L-53,55 L-54,55 L-54,56 L-55,56 L-55,57 L-56,57 L-56,58 L-57,58 L-57,60 L-58,60 L-58,61 L-59,61 L-59,63 L-60,63 L-60,64 L-61,64 L-61,66 L-62,66 L-62,67 L-63,67 L-63,69 L-64,69 L-64,70 L-65,70 L-65,72 L-66,72 L-66,73 L-67,73 L-67,75 L-68,75 L-68,76 L-69,76 L-69,77 L-70,77 L-70,79 L-71,79 L-71,80 L-72,80 L-72,82 L-73,82 L-73,83 L-74,83 L-74,85 L-75,85 L-75,86 L-76,86 L-76,88 L-77,88 L-77,89 L-78,89 L-78,91 L-79,91 L-79,92 L-80,92 L-80,94 L-81,94 L-81,95 L-82,95 L-82,96 L-83,96 L-83,98 L-84,98 L-84,99 L-85,99 L-85,101 L-86,101 L-86,102 L-87,102 L-87,104 L-88,104 L-88,105 L-89,105 L-89,107 L-90,107 L-90,108 L-91,108 L-91,110 L-93,110 L-93,111 L-94,111 L-94,112 L-100,112 L-100,111 L-102,111 L-102,110 L-103,110 L-103,108 L-104,108 L-104,102 L-103,102 L-103,100 L-102,100 L-102,99 L-101,99 L-101,98 L-100,98 L-100,96 L-99,96 L-99,95 L-113,95 L-113,94 L-116,94 L-116,93 L-118,93 L-118,91 L-119,91 L-119,84 L-118,84 L-118,82 L-116,82 L-116,81 L-89,81 L-89,80 L-88,80 L-88,79 L-87,79 L-87,77 L-86,77 L-86,76 L-85,76 L-85,74 L-84,74 L-84,73 L-83,73 L-83,71 L-82,71 L-82,70 L-81,70 L-81,68 L-80,68 L-80,67 L-79,67 L-79,65 L-78,65 L-78,64 L-77,64 L-77,62 L-76,62 L-76,61 L-75,61 L-75,60 L-74,60 L-74,58 L-73,58 L-73,57 L-72,57 L-72,55 L-71,55 L-71,54 L-70,54 L-70,52 L-69,52 L-69,51 L-68,51 L-68,49 L-67,49 L-67,48 L-66,48 L-66,46 L-65,46 L-65,45 L-64,45 L-64,43 L-63,43 L-63,42 L-62,42 L-62,40 L-61,40 L-61,39 L-60,39 L-60,38 L-59,38 L-59,37 L-58,37 L-58,36 L-57,36 L-57,35 L-51,35 L-51,36 L-49,36 L-49,37 L-48,37 L-48,38 L-47,38 L-47,40 L-46,40 L-46,41 L-45,41 L-45,43 L-44,43 L-44,44 L-43,44 L-43,46 L-42,46 L-42,47 L-41,47 L-41,49 L-40,49 L-40,50 L-39,50 L-39,52 L-38,52 L-38,53 L-37,53 L-37,54 L-36,54 L-36,55 L-35,55 L-35,54 L-34,54 L-34,52 L-33,52 L-33,50 L-32,50 L-32,49 L-31,49 L-31,47 L-30,47 L-30,46 L-29,46 L-29,44 L-28,44 L-28,42 L-27,42 L-27,41 L-26,41 L-26,39 L-25,39 L-25,38 L-24,38 L-24,36 L-23,36 L-23,35 L-22,35 L-22,33 L-21,33 L-21,31 L-20,31 L-20,30 L-19,30 L-19,28 L-18,28 L-18,27 L-17,27 L-17,25 L-16,25 L-16,24 L-15,24 L-15,22 L-14,22 L-14,20 L-13,20 L-13,19 L-12,19 L-12,17 L-11,17 L-11,16 L-10,16 L-10,14 L-9,14 L-9,12 L-8,12 L-8,11 L-7,11 L-7,9 L-6,9 L-6,8 L-5,8 L-5,6 L-4,6 L-4,5 L-3,5 L-3,3 L-2,3 L-2,2 L-1,2 L-1,1 L0,1 Z " fill="#000000" transform="translate(119,57)"/>
</svg>
